{
	"asset":{
		"generator":"Khronos glTF Blender I/O v3.6.28",
		"version":"2.0"
	},
	"scene":0,
	"scenes":[
		{
			"name":"Scene",
			"nodes":[
				0,
				1,
				2,
				3,
				4,
				5,
				6,
				7,
				8,
				9,
				10,
				11,
				12,
				13
			]
		}
	],
	"nodes":[
		{
			"mesh":0,
			"name":"Curve",
			"scale":[
				4.979311943054199,
				1,
				4.979311943054199
			]
		},
		{
			"mesh":1,
			"name":"Curve.001",
			"scale":[
				4.979311943054199,
				1,
				4.979311943054199
			]
		},
		{
			"mesh":2,
			"name":"Curve.002",
			"scale":[
				4.979311943054199,
				1,
				4.979311943054199
			]
		},
		{
			"mesh":3,
			"name":"Curve.003",
			"scale":[
				4.979311943054199,
				1,
				4.979311943054199
			]
		},
		{
			"mesh":4,
			"name":"Curve.004",
			"scale":[
				4.979311943054199,
				1,
				4.979311943054199
			]
		},
		{
			"mesh":5,
			"name":"Curve.005",
			"scale":[
				4.979311943054199,
				1,
				4.979311943054199
			]
		},
		{
			"mesh":6,
			"name":"Curve.006",
			"scale":[
				4.979311943054199,
				1,
				4.979311943054199
			]
		},
		{
			"mesh":7,
			"name":"Curve.007",
			"scale":[
				4.979311943054199,
				1,
				4.979311943054199
			]
		},
		{
			"mesh":8,
			"name":"Curve.008",
			"scale":[
				4.979311943054199,
				1,
				4.979311943054199
			]
		},
		{
			"mesh":9,
			"name":"Curve.009",
			"scale":[
				4.979311943054199,
				1,
				4.979311943054199
			]
		},
		{
			"mesh":10,
			"name":"Curve.010",
			"scale":[
				4.979311943054199,
				1,
				4.979311943054199
			]
		},
		{
			"mesh":11,
			"name":"Curve.011",
			"scale":[
				4.979311943054199,
				1,
				4.979311943054199
			]
		},
		{
			"mesh":12,
			"name":"Curve.012",
			"scale":[
				4.979311943054199,
				1,
				4.979311943054199
			]
		},
		{
			"mesh":13,
			"name":"Curve.013",
			"scale":[
				4.979311943054199,
				1,
				4.979311943054199
			]
		}
	],
	"materials":[
		{
			"doubleSided":true,
			"name":"SVGMat.001",
			"pbrMetallicRoughness":{
				"baseColorFactor":[
					0.020288562402129173,
					0.052860647439956665,
					0.2917706370353699,
					1
				],
				"metallicFactor":0,
				"roughnessFactor":0.4000000059604645
			}
		},
		{
			"doubleSided":true,
			"name":"SVGMat.002",
			"pbrMetallicRoughness":{
				"baseColorFactor":[
					0.020288562402129173,
					0.052860647439956665,
					0.2917706370353699,
					1
				],
				"metallicFactor":0,
				"roughnessFactor":0.4000000059604645
			}
		},
		{
			"doubleSided":true,
			"name":"SVGMat.003",
			"pbrMetallicRoughness":{
				"baseColorFactor":[
					0.020288562402129173,
					0.052860647439956665,
					0.2917706370353699,
					1
				],
				"metallicFactor":0,
				"roughnessFactor":0.4000000059604645
			}
		},
		{
			"doubleSided":true,
			"name":"SVGMat.004",
			"pbrMetallicRoughness":{
				"baseColorFactor":[
					0.020288562402129173,
					0.052860647439956665,
					0.2917706370353699,
					1
				],
				"metallicFactor":0,
				"roughnessFactor":0.4000000059604645
			}
		},
		{
			"doubleSided":true,
			"name":"SVGMat.005",
			"pbrMetallicRoughness":{
				"baseColorFactor":[
					0.020288562402129173,
					0.052860647439956665,
					0.2917706370353699,
					1
				],
				"metallicFactor":0,
				"roughnessFactor":0.4000000059604645
			}
		},
		{
			"doubleSided":true,
			"name":"SVGMat.006",
			"pbrMetallicRoughness":{
				"baseColorFactor":[
					0.020288562402129173,
					0.052860647439956665,
					0.2917706370353699,
					1
				],
				"metallicFactor":0,
				"roughnessFactor":0.4000000059604645
			}
		},
		{
			"doubleSided":true,
			"name":"SVGMat.007",
			"pbrMetallicRoughness":{
				"baseColorFactor":[
					0.020288562402129173,
					0.052860647439956665,
					0.2917706370353699,
					1
				],
				"metallicFactor":0,
				"roughnessFactor":0.4000000059604645
			}
		},
		{
			"doubleSided":true,
			"name":"SVGMat.008",
			"pbrMetallicRoughness":{
				"baseColorFactor":[
					0.020288562402129173,
					0.052860647439956665,
					0.2917706370353699,
					1
				],
				"metallicFactor":0,
				"roughnessFactor":0.4000000059604645
			}
		},
		{
			"doubleSided":true,
			"name":"SVGMat.009",
			"pbrMetallicRoughness":{
				"baseColorFactor":[
					0.27049779891967773,
					0.28314873576164246,
					0.2961382567882538,
					1
				],
				"metallicFactor":0,
				"roughnessFactor":0.4000000059604645
			}
		},
		{
			"doubleSided":true,
			"name":"SVGMat.010",
			"pbrMetallicRoughness":{
				"baseColorFactor":[
					0.27049779891967773,
					0.28314873576164246,
					0.2961382567882538,
					1
				],
				"metallicFactor":0,
				"roughnessFactor":0.4000000059604645
			}
		},
		{
			"doubleSided":true,
			"name":"SVGMat.011",
			"pbrMetallicRoughness":{
				"baseColorFactor":[
					0.27049779891967773,
					0.28314873576164246,
					0.2961382567882538,
					1
				],
				"metallicFactor":0,
				"roughnessFactor":0.4000000059604645
			}
		},
		{
			"doubleSided":true,
			"name":"SVGMat.012",
			"pbrMetallicRoughness":{
				"baseColorFactor":[
					0.27049779891967773,
					0.28314873576164246,
					0.2961382567882538,
					1
				],
				"metallicFactor":0,
				"roughnessFactor":0.4000000059604645
			}
		},
		{
			"doubleSided":true,
			"name":"SVGMat.013",
			"pbrMetallicRoughness":{
				"baseColorFactor":[
					0.27049779891967773,
					0.28314873576164246,
					0.2961382567882538,
					1
				],
				"metallicFactor":0,
				"roughnessFactor":0.4000000059604645
			}
		},
		{
			"doubleSided":true,
			"name":"SVGMat.014",
			"pbrMetallicRoughness":{
				"baseColorFactor":[
					0.27049779891967773,
					0.28314873576164246,
					0.2961382567882538,
					1
				],
				"metallicFactor":0,
				"roughnessFactor":0.4000000059604645
			}
		}
	],
	"meshes":[
		{
			"name":"Curve",
			"primitives":[
				{
					"attributes":{
						"POSITION":0,
						"NORMAL":1,
						"TEXCOORD_0":2
					},
					"indices":3,
					"material":0
				}
			]
		},
		{
			"name":"Curve.001",
			"primitives":[
				{
					"attributes":{
						"POSITION":4,
						"NORMAL":5,
						"TEXCOORD_0":6
					},
					"indices":7,
					"material":1
				}
			]
		},
		{
			"name":"Curve.002",
			"primitives":[
				{
					"attributes":{
						"POSITION":8,
						"NORMAL":9,
						"TEXCOORD_0":10
					},
					"indices":7,
					"material":2
				}
			]
		},
		{
			"name":"Curve.003",
			"primitives":[
				{
					"attributes":{
						"POSITION":11,
						"NORMAL":12,
						"TEXCOORD_0":13
					},
					"indices":14,
					"material":3
				}
			]
		},
		{
			"name":"Curve.004",
			"primitives":[
				{
					"attributes":{
						"POSITION":15,
						"NORMAL":16,
						"TEXCOORD_0":17
					},
					"indices":18,
					"material":4
				}
			]
		},
		{
			"name":"Curve.005",
			"primitives":[
				{
					"attributes":{
						"POSITION":19,
						"NORMAL":20,
						"TEXCOORD_0":21
					},
					"indices":22,
					"material":5
				}
			]
		},
		{
			"name":"Curve.006",
			"primitives":[
				{
					"attributes":{
						"POSITION":23,
						"NORMAL":24,
						"TEXCOORD_0":25
					},
					"indices":26,
					"material":6
				}
			]
		},
		{
			"name":"Curve.007",
			"primitives":[
				{
					"attributes":{
						"POSITION":27,
						"NORMAL":28,
						"TEXCOORD_0":29
					},
					"indices":18,
					"material":7
				}
			]
		},
		{
			"name":"Curve.008",
			"primitives":[
				{
					"attributes":{
						"POSITION":30,
						"NORMAL":31,
						"TEXCOORD_0":32
					},
					"indices":33,
					"material":8
				}
			]
		},
		{
			"name":"Curve.009",
			"primitives":[
				{
					"attributes":{
						"POSITION":34,
						"NORMAL":35,
						"TEXCOORD_0":36
					},
					"indices":37,
					"material":9
				}
			]
		},
		{
			"name":"Curve.010",
			"primitives":[
				{
					"attributes":{
						"POSITION":38,
						"NORMAL":39,
						"TEXCOORD_0":40
					},
					"indices":41,
					"material":10
				}
			]
		},
		{
			"name":"Curve.011",
			"primitives":[
				{
					"attributes":{
						"POSITION":42,
						"NORMAL":43,
						"TEXCOORD_0":44
					},
					"indices":45,
					"material":11
				}
			]
		},
		{
			"name":"Curve.012",
			"primitives":[
				{
					"attributes":{
						"POSITION":46,
						"NORMAL":47,
						"TEXCOORD_0":48
					},
					"indices":33,
					"material":12
				}
			]
		},
		{
			"name":"Curve.013",
			"primitives":[
				{
					"attributes":{
						"POSITION":49,
						"NORMAL":50,
						"TEXCOORD_0":51
					},
					"indices":41,
					"material":13
				}
			]
		}
	],
	"accessors":[
		{
			"bufferView":0,
			"componentType":5126,
			"count":598,
			"max":[
				0.010188430547714233,
				0.009999999776482582,
				-0.016591500490903854
			],
			"min":[
				0,
				-0.009999999776482582,
				-0.029994498938322067
			],
			"type":"VEC3"
		},
		{
			"bufferView":1,
			"componentType":5126,
			"count":598,
			"type":"VEC3"
		},
		{
			"bufferView":2,
			"componentType":5126,
			"count":598,
			"type":"VEC2"
		},
		{
			"bufferView":3,
			"componentType":5123,
			"count":1764,
			"type":"SCALAR"
		},
		{
			"bufferView":4,
			"componentType":5126,
			"count":68,
			"max":[
				0.015280736610293388,
				0.010999999940395355,
				-0.01590188778936863
			],
			"min":[
				0.01096646673977375,
				-0.010999999940395355,
				-0.02772134728729725
			],
			"type":"VEC3"
		},
		{
			"bufferView":5,
			"componentType":5126,
			"count":68,
			"type":"VEC3"
		},
		{
			"bufferView":6,
			"componentType":5126,
			"count":68,
			"type":"VEC2"
		},
		{
			"bufferView":7,
			"componentType":5123,
			"count":276,
			"type":"SCALAR"
		},
		{
			"bufferView":8,
			"componentType":5126,
			"count":68,
			"max":[
				0.015280736610293388,
				0.010999999940395355,
				-0.0268500205129385
			],
			"min":[
				0.01096646673977375,
				-0.010999999940395355,
				-0.03099449910223484
			],
			"type":"VEC3"
		},
		{
			"bufferView":9,
			"componentType":5126,
			"count":68,
			"type":"VEC3"
		},
		{
			"bufferView":10,
			"componentType":5126,
			"count":68,
			"type":"VEC2"
		},
		{
			"bufferView":11,
			"componentType":5126,
			"count":2082,
			"max":[
				0.02693675272166729,
				0.010999999940395355,
				-0.015160704031586647
			],
			"min":[
				0.014747905544936657,
				-0.010999999940395355,
				-0.03099449910223484
			],
			"type":"VEC3"
		},
		{
			"bufferView":12,
			"componentType":5126,
			"count":2082,
			"type":"VEC3"
		},
		{
			"bufferView":13,
			"componentType":5126,
			"count":2082,
			"type":"VEC2"
		},
		{
			"bufferView":14,
			"componentType":5123,
			"count":10584,
			"type":"SCALAR"
		},
		{
			"bufferView":15,
			"componentType":5126,
			"count":1928,
			"max":[
				0.03853632137179375,
				0.010999999940395355,
				-0.01543115172535181
			],
			"min":[
				0.026291167363524437,
				-0.010999999940395355,
				-0.028335783630609512
			],
			"type":"VEC3"
		},
		{
			"bufferView":16,
			"componentType":5126,
			"count":1928,
			"type":"VEC3"
		},
		{
			"bufferView":17,
			"componentType":5126,
			"count":1928,
			"type":"VEC2"
		},
		{
			"bufferView":18,
			"componentType":5123,
			"count":9792,
			"type":"SCALAR"
		},
		{
			"bufferView":19,
			"componentType":5126,
			"count":1867,
			"max":[
				0.05022314935922623,
				0.010999999940395355,
				-0.015590595081448555
			],
			"min":[
				0.03780529648065567,
				-0.010999999940395355,
				-0.02803361788392067
			],
			"type":"VEC3"
		},
		{
			"bufferView":20,
			"componentType":5126,
			"count":1867,
			"type":"VEC3"
		},
		{
			"bufferView":21,
			"componentType":5126,
			"count":1867,
			"type":"VEC2"
		},
		{
			"bufferView":22,
			"componentType":5123,
			"count":9492,
			"type":"SCALAR"
		},
		{
			"bufferView":23,
			"componentType":5126,
			"count":184,
			"max":[
				0.05549822375178337,
				0.010999999940395355,
				-0.01590188778936863
			],
			"min":[
				0.04864390566945076,
				-0.010999999940395355,
				-0.03099449910223484
			],
			"type":"VEC3"
		},
		{
			"bufferView":24,
			"componentType":5126,
			"count":184,
			"type":"VEC3"
		},
		{
			"bufferView":25,
			"componentType":5126,
			"count":184,
			"type":"VEC2"
		},
		{
			"bufferView":26,
			"componentType":5123,
			"count":852,
			"type":"SCALAR"
		},
		{
			"bufferView":27,
			"componentType":5126,
			"count":1928,
			"max":[
				0.06650511920452118,
				0.010999999940395355,
				-0.01543115172535181
			],
			"min":[
				0.05425994470715523,
				-0.010999999940395355,
				-0.028335828334093094
			],
			"type":"VEC3"
		},
		{
			"bufferView":28,
			"componentType":5126,
			"count":1928,
			"type":"VEC3"
		},
		{
			"bufferView":29,
			"componentType":5126,
			"count":1928,
			"type":"VEC2"
		},
		{
			"bufferView":30,
			"componentType":5126,
			"count":136,
			"max":[
				0.0027498137205839157,
				0.010999999940395355,
				0.0007742642192170024
			],
			"min":[
				-0.0005202124593779445,
				-0.010999999940395355,
				-0.014515865594148636
			],
			"type":"VEC3"
		},
		{
			"bufferView":31,
			"componentType":5126,
			"count":136,
			"type":"VEC3"
		},
		{
			"bufferView":32,
			"componentType":5126,
			"count":136,
			"type":"VEC2"
		},
		{
			"bufferView":33,
			"componentType":5123,
			"count":552,
			"type":"SCALAR"
		},
		{
			"bufferView":34,
			"componentType":5126,
			"count":184,
			"max":[
				0.009551508352160454,
				0.010999999940395355,
				0.0007742642192170024
			],
			"min":[
				0.0018505026819184422,
				-0.010999999940395355,
				-0.014515865594148636
			],
			"type":"VEC3"
		},
		{
			"bufferView":35,
			"componentType":5126,
			"count":184,
			"type":"VEC3"
		},
		{
			"bufferView":36,
			"componentType":5126,
			"count":184,
			"type":"VEC2"
		},
		{
			"bufferView":37,
			"componentType":5123,
			"count":852,
			"type":"SCALAR"
		},
		{
			"bufferView":38,
			"componentType":5126,
			"count":1592,
			"max":[
				0.0201632808893919,
				0.010999999940395355,
				0.00100119155831635
			],
			"min":[
				0.007718554697930813,
				-0.010999999940395355,
				-0.011300334706902504
			],
			"type":"VEC3"
		},
		{
			"bufferView":39,
			"componentType":5126,
			"count":1592,
			"type":"VEC3"
		},
		{
			"bufferView":40,
			"componentType":5126,
			"count":1592,
			"type":"VEC2"
		},
		{
			"bufferView":41,
			"componentType":5123,
			"count":8064,
			"type":"SCALAR"
		},
		{
			"bufferView":42,
			"componentType":5126,
			"count":68,
			"max":[
				0.02360646240413189,
				0.010999999940395355,
				0.0007742642192170024
			],
			"min":[
				0.020336436107754707,
				-0.010999999940395355,
				-0.014487648382782936
			],
			"type":"VEC3"
		},
		{
			"bufferView":43,
			"componentType":5126,
			"count":68,
			"type":"VEC3"
		},
		{
			"bufferView":44,
			"componentType":5126,
			"count":68,
			"type":"VEC2"
		},
		{
			"bufferView":45,
			"componentType":5123,
			"count":276,
			"type":"SCALAR"
		},
		{
			"bufferView":46,
			"componentType":5126,
			"count":136,
			"max":[
				0.02704964391887188,
				0.010999999940395355,
				0.0007742642192170024
			],
			"min":[
				0.023779617622494698,
				-0.010999999940395355,
				-0.014515865594148636
			],
			"type":"VEC3"
		},
		{
			"bufferView":47,
			"componentType":5126,
			"count":136,
			"type":"VEC3"
		},
		{
			"bufferView":48,
			"componentType":5126,
			"count":136,
			"type":"VEC2"
		},
		{
			"bufferView":49,
			"componentType":5126,
			"count":1592,
			"max":[
				0.039213668555021286,
				0.010999999940395355,
				0.0010011914419010282
			],
			"min":[
				0.026768945157527924,
				-0.010999999940395355,
				-0.011300334706902504
			],
			"type":"VEC3"
		},
		{
			"bufferView":50,
			"componentType":5126,
			"count":1592,
			"type":"VEC3"
		},
		{
			"bufferView":51,
			"componentType":5126,
			"count":1592,
			"type":"VEC2"
		}
	],
	"bufferViews":[
		{
			"buffer":0,
			"byteLength":7176,
			"byteOffset":0,
			"target":34962
		},
		{
			"buffer":0,
			"byteLength":7176,
			"byteOffset":7176,
			"target":34962
		},
		{
			"buffer":0,
			"byteLength":4784,
			"byteOffset":14352,
			"target":34962
		},
		{
			"buffer":0,
			"byteLength":3528,
			"byteOffset":19136,
			"target":34963
		},
		{
			"buffer":0,
			"byteLength":816,
			"byteOffset":22664,
			"target":34962
		},
		{
			"buffer":0,
			"byteLength":816,
			"byteOffset":23480,
			"target":34962
		},
		{
			"buffer":0,
			"byteLength":544,
			"byteOffset":24296,
			"target":34962
		},
		{
			"buffer":0,
			"byteLength":552,
			"byteOffset":24840,
			"target":34963
		},
		{
			"buffer":0,
			"byteLength":816,
			"byteOffset":25392,
			"target":34962
		},
		{
			"buffer":0,
			"byteLength":816,
			"byteOffset":26208,
			"target":34962
		},
		{
			"buffer":0,
			"byteLength":544,
			"byteOffset":27024,
			"target":34962
		},
		{
			"buffer":0,
			"byteLength":24984,
			"byteOffset":27568,
			"target":34962
		},
		{
			"buffer":0,
			"byteLength":24984,
			"byteOffset":52552,
			"target":34962
		},
		{
			"buffer":0,
			"byteLength":16656,
			"byteOffset":77536,
			"target":34962
		},
		{
			"buffer":0,
			"byteLength":21168,
			"byteOffset":94192,
			"target":34963
		},
		{
			"buffer":0,
			"byteLength":23136,
			"byteOffset":115360,
			"target":34962
		},
		{
			"buffer":0,
			"byteLength":23136,
			"byteOffset":138496,
			"target":34962
		},
		{
			"buffer":0,
			"byteLength":15424,
			"byteOffset":161632,
			"target":34962
		},
		{
			"buffer":0,
			"byteLength":19584,
			"byteOffset":177056,
			"target":34963
		},
		{
			"buffer":0,
			"byteLength":22404,
			"byteOffset":196640,
			"target":34962
		},
		{
			"buffer":0,
			"byteLength":22404,
			"byteOffset":219044,
			"target":34962
		},
		{
			"buffer":0,
			"byteLength":14936,
			"byteOffset":241448,
			"target":34962
		},
		{
			"buffer":0,
			"byteLength":18984,
			"byteOffset":256384,
			"target":34963
		},
		{
			"buffer":0,
			"byteLength":2208,
			"byteOffset":275368,
			"target":34962
		},
		{
			"buffer":0,
			"byteLength":2208,
			"byteOffset":277576,
			"target":34962
		},
		{
			"buffer":0,
			"byteLength":1472,
			"byteOffset":279784,
			"target":34962
		},
		{
			"buffer":0,
			"byteLength":1704,
			"byteOffset":281256,
			"target":34963
		},
		{
			"buffer":0,
			"byteLength":23136,
			"byteOffset":282960,
			"target":34962
		},
		{
			"buffer":0,
			"byteLength":23136,
			"byteOffset":306096,
			"target":34962
		},
		{
			"buffer":0,
			"byteLength":15424,
			"byteOffset":329232,
			"target":34962
		},
		{
			"buffer":0,
			"byteLength":1632,
			"byteOffset":344656,
			"target":34962
		},
		{
			"buffer":0,
			"byteLength":1632,
			"byteOffset":346288,
			"target":34962
		},
		{
			"buffer":0,
			"byteLength":1088,
			"byteOffset":347920,
			"target":34962
		},
		{
			"buffer":0,
			"byteLength":1104,
			"byteOffset":349008,
			"target":34963
		},
		{
			"buffer":0,
			"byteLength":2208,
			"byteOffset":350112,
			"target":34962
		},
		{
			"buffer":0,
			"byteLength":2208,
			"byteOffset":352320,
			"target":34962
		},
		{
			"buffer":0,
			"byteLength":1472,
			"byteOffset":354528,
			"target":34962
		},
		{
			"buffer":0,
			"byteLength":1704,
			"byteOffset":356000,
			"target":34963
		},
		{
			"buffer":0,
			"byteLength":19104,
			"byteOffset":357704,
			"target":34962
		},
		{
			"buffer":0,
			"byteLength":19104,
			"byteOffset":376808,
			"target":34962
		},
		{
			"buffer":0,
			"byteLength":12736,
			"byteOffset":395912,
			"target":34962
		},
		{
			"buffer":0,
			"byteLength":16128,
			"byteOffset":408648,
			"target":34963
		},
		{
			"buffer":0,
			"byteLength":816,
			"byteOffset":424776,
			"target":34962
		},
		{
			"buffer":0,
			"byteLength":816,
			"byteOffset":425592,
			"target":34962
		},
		{
			"buffer":0,
			"byteLength":544,
			"byteOffset":426408,
			"target":34962
		},
		{
			"buffer":0,
			"byteLength":552,
			"byteOffset":426952,
			"target":34963
		},
		{
			"buffer":0,
			"byteLength":1632,
			"byteOffset":427504,
			"target":34962
		},
		{
			"buffer":0,
			"byteLength":1632,
			"byteOffset":429136,
			"target":34962
		},
		{
			"buffer":0,
			"byteLength":1088,
			"byteOffset":430768,
			"target":34962
		},
		{
			"buffer":0,
			"byteLength":19104,
			"byteOffset":431856,
			"target":34962
		},
		{
			"buffer":0,
			"byteLength":19104,
			"byteOffset":450960,
			"target":34962
		},
		{
			"buffer":0,
			"byteLength":12736,
			"byteOffset":470064,
			"target":34962
		}
	],
	"buffers":[
		{
			"byteLength":482800,
			"uri":"data:application/octet-stream;base64,"
		}
	]
}
