<svg xmlns:xlink="http://www.w3.org/1999/xlink" xmlns="http://www.w3.org/2000/svg" viewBox="0 0 561.5 143.1" class="block h-auto w-48" width="561.5"  height="143.1" >
    <g id="Livello_2" data-name="Livello 2">
        <g id="Livello_1-2" data-name="Livello 1">
            <path class="cls-1" fill="#0B0146" d="M127 13h16v42h27v13h-43ZM177 13h15v55h-15ZM203 13h14l24 29V13h15v55h-14l-24-30v30h-15ZM266 13h45v13h-30v8h27v12h-27v9h30v13h-45ZM339 12h15l24 56h-17l-4-10h-22l-4 10h-16Zm14 34-7-15-6 15Z"></path>
            <path class="cls-2" fill="#F93245" d="M237 131a44 44 0 0 1-14-3 35 35 0 0 1-12-7l8-10a29 29 0 0 0 19 7 9 9 0 0 0 4-1 3 3 0 0 0 2-3 3 3 0 0 0 0-2 4 4 0 0 0-2-1 16 16 0 0 0-3-1 47 47 0 0 0-5-1l-8-3a26 26 0 0 1-7-3 14 14 0 0 1-6-12 17 17 0 0 1 2-7 16 16 0 0 1 4-6 21 21 0 0 1 7-4 29 29 0 0 1 9-1 41 41 0 0 1 13 2 33 33 0 0 1 10 6l-8 11a32 32 0 0 0-8-5 24 24 0 0 0-7-1 7 7 0 0 0-5 1 3 3 0 0 0-1 3 3 3 0 0 0 0 1 4 4 0 0 0 2 2 17 17 0 0 0 3 1l5 1a71 71 0 0 1 9 3 27 27 0 0 1 6 3 14 14 0 0 1 4 5 14 14 0 0 1 2 6v1a17 17 0 0 1-2 7 16 16 0 0 1-5 6 21 21 0 0 1-7 3 33 33 0 0 1-9 2ZM294 131a30 30 0 0 1-11-2 28 28 0 0 1-9-6 29 29 0 0 1-9-21 29 29 0 0 1 9-21 28 28 0 0 1 9-6 31 31 0 0 1 12-2 34 34 0 0 1 8 1 26 26 0 0 1 6 2 25 25 0 0 1 6 4 31 31 0 0 1 4 5l-12 9a20 20 0 0 0-5-5 13 13 0 0 0-7-2 13 13 0 0 0-6 1 13 13 0 0 0-4 3 15 15 0 0 0-3 5 16 16 0 0 0-1 6 17 17 0 0 0 1 6 15 15 0 0 0 3 4 13 13 0 0 0 4 4 13 13 0 0 0 6 1 16 16 0 0 0 4-1 12 12 0 0 0 3-1 18 18 0 0 0 3-2 31 31 0 0 0 3-3l11 8a42 42 0 0 1-4 5 25 25 0 0 1-6 4 28 28 0 0 1-6 3 34 34 0 0 1-9 1ZM351 131a36 36 0 0 1-11-2 21 21 0 0 1-8-4 21 21 0 0 1-5-8 32 32 0 0 1-2-12V74h16v31q0 6 3 9a10 10 0 0 0 7 3 10 10 0 0 0 8-3q3-3 3-9V75h16v31a32 32 0 0 1-2 12 21 21 0 0 1-6 8 22 22 0 0 1-8 4 37 37 0 0 1-11 2ZM415 131a32 32 0 0 1-12-2 30 30 0 0 1-10-7 28 28 0 0 1-6-9 28 28 0 0 1-2-11 28 28 0 0 1 9-21 30 30 0 0 1 9-6 33 33 0 0 1 24 0 30 30 0 0 1 10 6 29 29 0 0 1 6 10 28 28 0 0 1 2 11 28 28 0 0 1-8 20 30 30 0 0 1-10 7 32 32 0 0 1-12 2Zm0-14a14 14 0 0 0 6-1 13 13 0 0 0 5-3 15 15 0 0 0 2-5 16 16 0 0 0 1-6 16 16 0 0 0-1-6 15 15 0 0 0-7-8 14 14 0 0 0-6-1 14 14 0 0 0-6 1 14 14 0 0 0-7 8 16 16 0 0 0-1 6 16 16 0 0 0 1 6 15 15 0 0 0 3 4 14 14 0 0 0 4 4 14 14 0 0 0 6 1ZM454 74h15v42h27v14h-42ZM522 74h15l24 56h-16l-4-10h-22l-4 10h-16Zm14 34-6-16-6 16Z"></path>
            <path class="cls-1" fill="#0B0146" d="M134 83h3l9 20h-4l-2-4h-9l-3 4h-3Zm5 12-4-8-3 8ZM150 83h3v17h11v4h-14ZM168 83h3v17h11v4h-14ZM193 83h3l9 20h-4l-2-4h-9l-3 4h-3Zm5 12-4-8-3 8Z"></path>
            <path class="cls-3" fill="#4FA0CA" d="M49 94a22 22 0 0 0 22-21V39a14 14 0 0 0-1-25 22 22 0 0 0-42 2h7c3 0 3 4 0 4h-7v6h7c3 0 3 5 0 5h-7v6h7c3 0 3 4 0 4h-7v32a22 22 0 0 0 21 21Z"></path>
            <path class="cls-3" fill="#4FA0CA" d="M87 47a6 6 0 0 0-6 5v20c0 18-14 33-31 33a32 32 0 0 1-33-32V52a6 6 0 0 0-5-5 6 6 0 0 0-6 5v21a43 43 0 0 0 35 42 3 3 0 0 1 3 3v9a5 5 0 0 1-5 5h-8a6 6 0 0 0-5 5 6 6 0 0 0 5 6h36a6 6 0 0 0 6-5 6 6 0 0 0-5-6h-8a5 5 0 0 1-5-5v-9a3 3 0 0 1 2-3 43 43 0 0 0 36-42V52a6 6 0 0 0-6-5Z"></path>
            <path class="cls-1" fill="#0B0146" d="M29 41h-7v32a22 22 0 1 0 43 0V22a22 22 0 0 0-43-6h7c3 0 3 4 0 4h-7v6h7c3 0 3 5 0 5h-7v6h7c3 0 3 4 0 4Z"></path>
            <path class="cls-1" fill="#0B0146" d="M81 47a6 6 0 0 0-6 5v20c0 18-14 33-31 33a32 32 0 0 1-33-32V52a6 6 0 0 0-5-5 6 6 0 0 0-6 5v21a43 43 0 0 0 35 42 3 3 0 0 1 3 3v9a5 5 0 0 1-5 5h-8a6 6 0 0 0-6 5 6 6 0 0 0 6 6h36a6 6 0 0 0 6-5 6 6 0 0 0-6-6h-7a5 5 0 0 1-5-5v-9a3 3 0 0 1 2-3 43 43 0 0 0 35-42V52a6 6 0 0 0-5-5Z"></path>
            <circle class="cls-2" fill="#F93245" cx="57.2" cy="26.9" r="14.5"></circle>
        </g>
    </g>
</svg>