{
	"asset":{
		"generator":"Khronos glTF Blender I/O v4.0.6",
		"version":"2.0"
	},
	"scene":0,
	"scenes":[
		{
			"name":"Scene",
			"nodes":[
				0
			]
		}
	],
	"nodes":[
		{
			"mesh":0,
			"name":"Navmesh",
			"scale":[
				1.322232961654663,
				1,
				1.1511749029159546
			],
			"translation":[
				-0.22234702110290527,
				0,
				-0.06579819321632385
			]
		}
	],
	"meshes":[
		{
			"name":"Navmesh.006",
			"primitives":[
				{
					"attributes":{
						"POSITION":0,
						"NORMAL":1
					},
					"indices":2
				}
			]
		}
	],
	"accessors":[
		{
			"bufferView":0,
			"componentType":5126,
			"count":45,
			"max":[
				1.9313037395477295,
				0.09999999403953552,
				4.265389919281006
			],
			"min":[
				-3.168696403503418,
				0.09999999403953552,
				-4.134610176086426
			],
			"type":"VEC3"
		},
		{
			"bufferView":1,
			"componentType":5126,
			"count":45,
			"type":"VEC3"
		},
		{
			"bufferView":2,
			"componentType":5123,
			"count":141,
			"type":"SCALAR"
		}
	],
	"bufferViews":[
		{
			"buffer":0,
			"byteLength":540,
			"byteOffset":0,
			"target":34962
		},
		{
			"buffer":0,
			"byteLength":540,
			"byteOffset":540,
			"target":34962
		},
		{
			"buffer":0,
			"byteLength":282,
			"byteOffset":1080,
			"target":34963
		}
	],
	"buffers":[
		{
			"byteLength":1364,
			"uri":"data:application/octet-stream;base64,"
		}
	]
}
