{
	"asset":{
		"generator":"Khronos glTF Blender I/O v4.0.6",
		"version":"2.0"
	},
	"scene":0,
	"scenes":[
		{
			"name":"Scene",
			"nodes":[
				0
			]
		}
	],
	"nodes":[
		{
			"mesh":0,
			"name":"Navmesh",
			"scale":[
				1.4186824560165405,
				1,
				1.2527190446853638
			],
			"translation":[
				-0.593808114528656,
				0,
				0
			]
		}
	],
	"meshes":[
		{
			"name":"Navmesh.002",
			"primitives":[
				{
					"attributes":{
						"POSITION":0,
						"NORMAL":1
					},
					"indices":2
				}
			]
		}
	],
	"accessors":[
		{
			"bufferView":0,
			"componentType":5126,
			"count":24,
			"max":[
				3.172630786895752,
				0.09999999403953552,
				3.9653913974761963
			],
			"min":[
				-3.1785428524017334,
				0.09999999403953552,
				-3.834608554840088
			],
			"type":"VEC3"
		},
		{
			"bufferView":1,
			"componentType":5126,
			"count":24,
			"type":"VEC3"
		},
		{
			"bufferView":2,
			"componentType":5123,
			"count":90,
			"type":"SCALAR"
		}
	],
	"bufferViews":[
		{
			"buffer":0,
			"byteLength":288,
			"byteOffset":0,
			"target":34962
		},
		{
			"buffer":0,
			"byteLength":288,
			"byteOffset":288,
			"target":34962
		},
		{
			"buffer":0,
			"byteLength":180,
			"byteOffset":576,
			"target":34963
		}
	],
	"buffers":[
		{
			"byteLength":756,
			"uri":"data:application/octet-stream;base64,"
		}
	]
}
