{
	"asset":{
		"generator":"Khronos glTF Blender I/O v3.6.28",
		"version":"2.0"
	},
	"scene":0,
	"scenes":[
		{
			"name":"Scene",
			"nodes":[
				0
			]
		}
	],
	"nodes":[
		{
			"mesh":0,
			"name":"navmap",
			"rotation":[
				-0.70710688829422,
				0,
				0,
				0.7071066498756409
			],
			"scale":[
				0.02539999969303608,
				0.025400003418326378,
				0.025400003418326378
			],
			"translation":[
				-2.049687623977661,
				0.027243491262197495,
				-0.37585902214050293
			]
		}
	],
	"materials":[
		{
			"name":"fallback Material.002",
			"pbrMetallicRoughness":{
				"baseColorFactor":[
					0.0235294122248888,
					0.529411792755127,
					0.0235294122248888,
					1
				]
			}
		}
	],
	"meshes":[
		{
			"name":"navmap",
			"primitives":[
				{
					"attributes":{
						"POSITION":0,
						"NORMAL":1
					},
					"indices":2,
					"material":0
				}
			]
		}
	],
	"accessors":[
		{
			"bufferView":0,
			"componentType":5126,
			"count":401,
			"max":[
				331.23443603515625,
				189.56813049316406,
				0
			],
			"min":[
				-173.7391815185547,
				-222.90794372558594,
				0
			],
			"type":"VEC3"
		},
		{
			"bufferView":1,
			"componentType":5126,
			"count":401,
			"type":"VEC3"
		},
		{
			"bufferView":2,
			"componentType":5123,
			"count":1170,
			"type":"SCALAR"
		}
	],
	"bufferViews":[
		{
			"buffer":0,
			"byteLength":4812,
			"byteOffset":0,
			"target":34962
		},
		{
			"buffer":0,
			"byteLength":4812,
			"byteOffset":4812,
			"target":34962
		},
		{
			"buffer":0,
			"byteLength":2340,
			"byteOffset":9624,
			"target":34963
		}
	],
	"buffers":[
		{
			"byteLength":11964,
			"uri":"data:application/octet-stream;base64,"
		}
	]
}
