{
	"asset":{
		"generator":"Khronos glTF Blender I/O v4.0.6",
		"version":"2.0"
	},
	"scene":0,
	"scenes":[
		{
			"name":"Scene",
			"nodes":[
				0
			]
		}
	],
	"nodes":[
		{
			"mesh":0,
			"name":"Navmesh",
			"scale":[
				1.361829400062561,
				1,
				1.2309187650680542
			],
			"translation":[
				-0.30801159143447876,
				0,
				0.1226612851023674
			]
		}
	],
	"meshes":[
		{
			"name":"Navmesh",
			"primitives":[
				{
					"attributes":{
						"POSITION":0,
						"NORMAL":1
					},
					"indices":2
				}
			]
		}
	],
	"accessors":[
		{
			"bufferView":0,
			"componentType":5126,
			"count":36,
			"max":[
				2.829413890838623,
				0.09999999403953552,
				3.96539044380188
			],
			"min":[
				-4.221050262451172,
				0.09999999403953552,
				-3.8346095085144043
			],
			"type":"VEC3"
		},
		{
			"bufferView":1,
			"componentType":5126,
			"count":36,
			"type":"VEC3"
		},
		{
			"bufferView":2,
			"componentType":5123,
			"count":117,
			"type":"SCALAR"
		}
	],
	"bufferViews":[
		{
			"buffer":0,
			"byteLength":432,
			"byteOffset":0,
			"target":34962
		},
		{
			"buffer":0,
			"byteLength":432,
			"byteOffset":432,
			"target":34962
		},
		{
			"buffer":0,
			"byteLength":234,
			"byteOffset":864,
			"target":34963
		}
	],
	"buffers":[
		{
			"byteLength":1100,
			"uri":"data:application/octet-stream;base64,"
		}
	]
}
