{
	"asset":{
		"generator":"Khronos glTF Blender I/O v4.0.6",
		"version":"2.0"
	},
	"scene":0,
	"scenes":[
		{
			"name":"Scene",
			"nodes":[
				0
			]
		}
	],
	"nodes":[
		{
			"mesh":0,
			"name":"Navmesh",
			"scale":[
				1.5399835109710693,
				1,
				1.1769007444381714
			],
			"translation":[
				0.8608226180076599,
				0,
				0
			]
		}
	],
	"meshes":[
		{
			"name":"Navmesh.005",
			"primitives":[
				{
					"attributes":{
						"POSITION":0,
						"NORMAL":1
					},
					"indices":2
				}
			]
		}
	],
	"accessors":[
		{
			"bufferView":0,
			"componentType":5126,
			"count":19,
			"max":[
				2.117940902709961,
				0.09999999403953552,
				4.265390396118164
			],
			"min":[
				-3.6542201042175293,
				0.09999999403953552,
				-4.134609699249268
			],
			"type":"VEC3"
		},
		{
			"bufferView":1,
			"componentType":5126,
			"count":19,
			"type":"VEC3"
		},
		{
			"bufferView":2,
			"componentType":5123,
			"count":57,
			"type":"SCALAR"
		}
	],
	"bufferViews":[
		{
			"buffer":0,
			"byteLength":228,
			"byteOffset":0,
			"target":34962
		},
		{
			"buffer":0,
			"byteLength":228,
			"byteOffset":228,
			"target":34962
		},
		{
			"buffer":0,
			"byteLength":114,
			"byteOffset":456,
			"target":34963
		}
	],
	"buffers":[
		{
			"byteLength":572,
			"uri":"data:application/octet-stream;base64,"
		}
	]
}
