{
	"asset":{
		"generator":"Khronos glTF Blender I/O v4.0.6",
		"version":"2.0"
	},
	"scene":0,
	"scenes":[
		{
			"name":"Scene",
			"nodes":[
				0
			]
		}
	],
	"nodes":[
		{
			"mesh":0,
			"name":"Navmesh",
			"scale":[
				1.2884918451309204,
				1,
				1.2280324697494507
			],
			"translation":[
				-0.12531977891921997,
				0,
				-0.35702595114707947
			]
		}
	],
	"meshes":[
		{
			"name":"Navmesh.008",
			"primitives":[
				{
					"attributes":{
						"POSITION":0,
						"NORMAL":1
					},
					"indices":2
				}
			]
		}
	],
	"accessors":[
		{
			"bufferView":0,
			"componentType":5126,
			"count":16,
			"max":[
				1.8416595458984375,
				0.09999999403953552,
				4.331002235412598
			],
			"min":[
				-3.258340835571289,
				0.09999999403953552,
				-0.4689979553222656
			],
			"type":"VEC3"
		},
		{
			"bufferView":1,
			"componentType":5126,
			"count":16,
			"type":"VEC3"
		},
		{
			"bufferView":2,
			"componentType":5123,
			"count":45,
			"type":"SCALAR"
		}
	],
	"bufferViews":[
		{
			"buffer":0,
			"byteLength":192,
			"byteOffset":0,
			"target":34962
		},
		{
			"buffer":0,
			"byteLength":192,
			"byteOffset":192,
			"target":34962
		},
		{
			"buffer":0,
			"byteLength":90,
			"byteOffset":384,
			"target":34963
		}
	],
	"buffers":[
		{
			"byteLength":476,
			"uri":"data:application/octet-stream;base64,"
		}
	]
}
