{
	"asset":{
		"generator":"Khronos glTF Blender I/O v4.0.6",
		"version":"2.0"
	},
	"scene":0,
	"scenes":[
		{
			"name":"Scene",
			"nodes":[
				0
			]
		}
	],
	"nodes":[
		{
			"mesh":0,
			"name":"Navmesh",
			"scale":[
				1.2862982749938965,
				1,
				1.1611502170562744
			],
			"translation":[
				-0.26547008752822876,
				0,
				-0.06829050928354263
			]
		}
	],
	"meshes":[
		{
			"name":"Navmesh.007",
			"primitives":[
				{
					"attributes":{
						"POSITION":0,
						"NORMAL":1
					},
					"indices":2
				}
			]
		}
	],
	"accessors":[
		{
			"bufferView":0,
			"componentType":5126,
			"count":19,
			"max":[
				1.4840400218963623,
				0.09999999403953552,
				4.265389919281006
			],
			"min":[
				-3.1787829399108887,
				0.09999999403953552,
				-4.134610176086426
			],
			"type":"VEC3"
		},
		{
			"bufferView":1,
			"componentType":5126,
			"count":19,
			"type":"VEC3"
		},
		{
			"bufferView":2,
			"componentType":5123,
			"count":60,
			"type":"SCALAR"
		}
	],
	"bufferViews":[
		{
			"buffer":0,
			"byteLength":228,
			"byteOffset":0,
			"target":34962
		},
		{
			"buffer":0,
			"byteLength":228,
			"byteOffset":228,
			"target":34962
		},
		{
			"buffer":0,
			"byteLength":120,
			"byteOffset":456,
			"target":34963
		}
	],
	"buffers":[
		{
			"byteLength":576,
			"uri":"data:application/octet-stream;base64,"
		}
	]
}
